<svg width="270" height="51" viewBox="0 0 270 51" fill="none" xmlns="http://www.w3.org/2000/svg">
<g clip-path="url(#clip0_402_115)">
<path d="M0 25.8182C0 36.5672 6.78438 45.7308 16.3042 49.2631L18.4782 25.8181L16.3042 2.37317C6.78438 5.90559 0 15.0691 0 25.8182Z" fill="#6DA544"/>
<path d="M50 25.8182C50 12.0111 38.807 0.818176 25 0.818176C21.942 0.818176 19.0126 1.36827 16.3042 2.37316V49.2632C19.0126 50.2682 21.942 50.8182 25 50.8182C38.807 50.8182 50 39.6252 50 25.8182Z" fill="#D80027"/>
<path d="M16.3044 34.5138C21.1068 34.5138 25 30.6206 25 25.8182C25 21.0157 21.1068 17.1226 16.3044 17.1226C11.5019 17.1226 7.60876 21.0157 7.60876 25.8182C7.60876 30.6206 11.5019 34.5138 16.3044 34.5138Z" fill="#FFDA44"/>
<path d="M11.4131 21.4703V26.9051C11.4131 29.6065 13.6029 31.7964 16.3044 31.7964C19.0059 31.7964 21.1957 29.6066 21.1957 26.9051V21.4703H11.4131Z" fill="#D80027"/>
<path d="M16.3044 28.5356C15.4054 28.5356 14.674 27.8041 14.674 26.9051V24.7313H17.9348V26.9052C17.9348 27.8041 17.2033 28.5356 16.3044 28.5356Z" fill="#F0F0F0"/>
</g>
<path d="M102.516 12.7244V38.3182H96.5918V19.4041L90.7559 21.1092V16.6092L101.971 12.7244H102.516ZM123.627 12.3553H124.576V17.0135H124.26C123.123 17.0135 122.057 17.1717 121.061 17.4881C120.076 17.8045 119.209 18.285 118.459 18.9295C117.721 19.5623 117.141 20.3651 116.719 21.3377C116.309 22.3104 116.104 23.4529 116.104 24.7654V29.2479C116.104 30.0682 116.174 30.783 116.314 31.3924C116.455 32.0018 116.666 32.5057 116.947 32.9041C117.229 33.3026 117.574 33.6014 117.984 33.8006C118.406 33.9998 118.893 34.0994 119.443 34.0994C119.9 34.0994 120.322 33.994 120.709 33.783C121.096 33.5721 121.43 33.2733 121.711 32.8865C122.004 32.4998 122.227 32.0486 122.379 31.533C122.531 31.0174 122.607 30.4549 122.607 29.8455C122.607 29.1893 122.525 28.5975 122.361 28.0701C122.197 27.5428 121.963 27.0975 121.658 26.7342C121.365 26.3592 121.008 26.0779 120.586 25.8904C120.176 25.6912 119.725 25.5916 119.232 25.5916C118.482 25.5916 117.844 25.7615 117.316 26.1014C116.801 26.4295 116.408 26.8514 116.139 27.367C115.881 27.8826 115.752 28.4041 115.752 28.9315L114.328 27.4901C114.305 26.7869 114.439 26.0604 114.732 25.3104C115.025 24.5604 115.465 23.8631 116.051 23.2186C116.637 22.574 117.369 22.0526 118.248 21.6541C119.127 21.2557 120.146 21.0565 121.307 21.0565C122.479 21.0565 123.51 21.2791 124.4 21.7244C125.303 22.1697 126.059 22.7908 126.668 23.5877C127.289 24.3846 127.758 25.3162 128.074 26.3826C128.391 27.449 128.549 28.6033 128.549 29.8455C128.549 31.0994 128.326 32.2654 127.881 33.3436C127.447 34.41 126.832 35.3416 126.035 36.1385C125.238 36.9354 124.295 37.5565 123.205 38.0018C122.115 38.4471 120.914 38.6697 119.602 38.6697C118.254 38.6697 117.006 38.4412 115.857 37.9842C114.721 37.5154 113.725 36.8416 112.869 35.9627C112.025 35.0721 111.363 33.9881 110.883 32.7108C110.414 31.4334 110.18 29.9861 110.18 28.369V26.2068C110.18 24.0154 110.537 22.0643 111.252 20.3533C111.979 18.6424 112.963 17.1951 114.205 16.0115C115.459 14.8162 116.895 13.908 118.512 13.2869C120.129 12.6658 121.834 12.3553 123.627 12.3553ZM131.66 35.5408C131.66 34.6971 131.965 33.994 132.574 33.4315C133.184 32.8572 133.969 32.5701 134.93 32.5701C135.902 32.5701 136.688 32.8572 137.285 33.4315C137.895 33.994 138.199 34.6971 138.199 35.5408C138.199 36.3846 137.895 37.0936 137.285 37.6678C136.688 38.2303 135.902 38.5115 134.93 38.5115C133.969 38.5115 133.184 38.2303 132.574 37.6678C131.965 37.0936 131.66 36.3846 131.66 35.5408ZM131.66 21.5135C131.66 20.6697 131.965 19.9666 132.574 19.4041C133.184 18.8299 133.969 18.5428 134.93 18.5428C135.902 18.5428 136.688 18.8299 137.285 19.4041C137.895 19.9666 138.199 20.6697 138.199 21.5135C138.199 22.3572 137.895 23.0662 137.285 23.6404C136.688 24.2029 135.902 24.4842 134.93 24.4842C133.969 24.4842 133.184 24.2029 132.574 23.6404C131.965 23.0662 131.66 22.3572 131.66 21.5135ZM159.768 23.1834V27.8592C159.768 29.699 159.551 31.2986 159.117 32.658C158.695 34.0174 158.086 35.1424 157.289 36.033C156.504 36.9236 155.566 37.5858 154.477 38.0193C153.387 38.4529 152.186 38.6697 150.873 38.6697C149.818 38.6697 148.834 38.535 147.92 38.2654C147.006 37.9842 146.18 37.5623 145.441 36.9998C144.715 36.4256 144.088 35.7108 143.561 34.8553C143.033 33.9998 142.629 32.992 142.348 31.8318C142.066 30.66 141.926 29.3358 141.926 27.8592V23.1834C141.926 21.3318 142.137 19.7322 142.559 18.3846C142.992 17.0252 143.607 15.9002 144.404 15.0096C145.201 14.119 146.145 13.4568 147.234 13.0233C148.324 12.5897 149.525 12.3729 150.838 12.3729C151.893 12.3729 152.871 12.5135 153.773 12.7947C154.688 13.0643 155.514 13.4861 156.252 14.0604C156.99 14.6229 157.617 15.3318 158.133 16.1873C158.66 17.0428 159.064 18.0565 159.346 19.2283C159.627 20.3885 159.768 21.7068 159.768 23.1834ZM153.844 28.5799V22.4276C153.844 21.6072 153.797 20.8924 153.703 20.283C153.621 19.6736 153.492 19.158 153.316 18.7361C153.152 18.3143 152.947 17.9744 152.701 17.7166C152.455 17.4471 152.174 17.2537 151.857 17.1365C151.553 17.0076 151.213 16.9432 150.838 16.9432C150.369 16.9432 149.947 17.0428 149.572 17.242C149.209 17.4295 148.898 17.7342 148.641 18.1561C148.383 18.5779 148.184 19.1404 148.043 19.8436C147.914 20.5467 147.85 21.408 147.85 22.4276V28.5799C147.85 29.4119 147.891 30.1385 147.973 30.7596C148.066 31.369 148.195 31.8904 148.359 32.324C148.535 32.7459 148.746 33.0916 148.992 33.3611C149.238 33.619 149.52 33.8065 149.836 33.9236C150.152 34.0408 150.498 34.0994 150.873 34.0994C151.33 34.0994 151.74 34.0057 152.104 33.8182C152.467 33.6307 152.777 33.326 153.035 32.9041C153.305 32.4705 153.504 31.9022 153.633 31.199C153.773 30.4842 153.844 29.6111 153.844 28.5799ZM180.65 23.1834V27.8592C180.65 29.699 180.434 31.2986 180 32.658C179.578 34.0174 178.969 35.1424 178.172 36.033C177.387 36.9236 176.449 37.5858 175.359 38.0193C174.27 38.4529 173.068 38.6697 171.756 38.6697C170.701 38.6697 169.717 38.535 168.803 38.2654C167.889 37.9842 167.062 37.5623 166.324 36.9998C165.598 36.4256 164.971 35.7108 164.443 34.8553C163.916 33.9998 163.512 32.992 163.23 31.8318C162.949 30.66 162.809 29.3358 162.809 27.8592V23.1834C162.809 21.3318 163.02 19.7322 163.441 18.3846C163.875 17.0252 164.49 15.9002 165.287 15.0096C166.084 14.119 167.027 13.4568 168.117 13.0233C169.207 12.5897 170.408 12.3729 171.721 12.3729C172.775 12.3729 173.754 12.5135 174.656 12.7947C175.57 13.0643 176.396 13.4861 177.135 14.0604C177.873 14.6229 178.5 15.3318 179.016 16.1873C179.543 17.0428 179.947 18.0565 180.229 19.2283C180.51 20.3885 180.65 21.7068 180.65 23.1834ZM174.727 28.5799V22.4276C174.727 21.6072 174.68 20.8924 174.586 20.283C174.504 19.6736 174.375 19.158 174.199 18.7361C174.035 18.3143 173.83 17.9744 173.584 17.7166C173.338 17.4471 173.057 17.2537 172.74 17.1365C172.436 17.0076 172.096 16.9432 171.721 16.9432C171.252 16.9432 170.83 17.0428 170.455 17.242C170.092 17.4295 169.781 17.7342 169.523 18.1561C169.266 18.5779 169.066 19.1404 168.926 19.8436C168.797 20.5467 168.732 21.408 168.732 22.4276V28.5799C168.732 29.4119 168.773 30.1385 168.855 30.7596C168.949 31.369 169.078 31.8904 169.242 32.324C169.418 32.7459 169.629 33.0916 169.875 33.3611C170.121 33.619 170.402 33.8065 170.719 33.9236C171.035 34.0408 171.381 34.0994 171.756 34.0994C172.213 34.0994 172.623 34.0057 172.986 33.8182C173.35 33.6307 173.66 33.326 173.918 32.9041C174.188 32.4705 174.387 31.9022 174.516 31.199C174.656 30.4842 174.727 29.6111 174.727 28.5799Z" fill="#E1E1E6"/>
<g clip-path="url(#clip1_402_115)">
<path d="M245 50.8182C258.807 50.8182 270 39.6253 270 25.8182C270 12.0111 258.807 0.818176 245 0.818176C231.193 0.818176 220 12.0111 220 25.8182C220 39.6253 231.193 50.8182 245 50.8182Z" fill="#F0F0F0"/>
<path d="M245 19.2964H269.139C268.512 16.9708 267.559 14.7793 266.331 12.7746H245V19.2964Z" fill="#338AF3"/>
<path d="M229.438 45.3834H260.562C262.844 43.5662 264.8 41.359 266.331 38.8616H223.669C225.2 41.3589 227.156 43.5662 229.438 45.3834V45.3834Z" fill="#338AF3"/>
<path d="M245 0.818176V6.25294H260.562C256.292 2.85177 250.884 0.818176 245 0.818176V0.818176Z" fill="#338AF3"/>
<path d="M245 19.2964H269.139C268.512 16.9708 267.559 14.7793 266.331 12.7746H245V19.2964Z" fill="#338AF3"/>
<path d="M220 25.8182C220 28.0747 220.301 30.2605 220.861 32.34H269.139C269.699 30.2605 270 28.0747 270 25.8182H220Z" fill="#338AF3"/>
<path d="M241.739 15.4491L238.686 16.8854L240.312 19.8424L236.996 19.2082L236.576 22.5573L234.267 20.0941L231.958 22.5573L231.538 19.2082L228.222 19.8422L229.848 16.8853L226.795 15.4491L229.848 14.0131L228.222 11.0561L231.537 11.6902L231.958 8.34113L234.267 10.8044L236.576 8.34113L236.996 11.6902L240.312 11.0561L238.686 14.0132L241.739 15.4491Z" fill="#FFDA44"/>
</g>
<defs>
<clipPath id="clip0_402_115">
<rect width="50" height="50" fill="white" transform="translate(0 0.818176)"/>
</clipPath>
<clipPath id="clip1_402_115">
<rect width="50" height="50" fill="white" transform="translate(220 0.818176)"/>
</clipPath>
</defs>
</svg>
