<svg width="641" height="411" viewBox="0 0 641 411" fill="none" xmlns="http://www.w3.org/2000/svg">
<g clip-path="url(#clip0_0_1)">
<path d="M25 181C38.8071 181 50 169.807 50 156C50 142.193 38.8071 131 25 131C11.1929 131 0 142.193 0 156C0 169.807 11.1929 181 25 181Z" fill="#D80027"/>
<path d="M38.0435 151.652H29.3479V142.957H20.6521V151.652H11.9565V160.348H20.6521V169.043H29.3479V160.348H38.0435V151.652Z" fill="#F0F0F0"/>
</g>
<mask id="path-3-inside-1_0_1" fill="white">
<path d="M325 5.99999C325 2.68629 327.686 0 331 0H635C638.314 0 641 2.68629 641 6V404.818C641 408.132 638.314 410.818 635 410.818H331C327.686 410.818 325 408.132 325 404.818V5.99999Z"/>
</mask>
<path d="M325 5.99999C325 2.68629 327.686 0 331 0H635C638.314 0 641 2.68629 641 6V404.818C641 408.132 638.314 410.818 635 410.818H331C327.686 410.818 325 408.132 325 404.818V5.99999Z" fill="#202024"/>
<path d="M424.312 60.3633V63H412.641V60.75L418.16 54.832C418.715 54.2148 419.152 53.6719 419.473 53.2031C419.793 52.7266 420.023 52.3008 420.164 51.9258C420.312 51.543 420.387 51.1797 420.387 50.8359C420.387 50.3203 420.301 49.8789 420.129 49.5117C419.957 49.1367 419.703 48.8477 419.367 48.6445C419.039 48.4414 418.633 48.3398 418.148 48.3398C417.633 48.3398 417.188 48.4648 416.812 48.7148C416.445 48.9648 416.164 49.3125 415.969 49.7578C415.781 50.2031 415.688 50.707 415.688 51.2695H412.301C412.301 50.2539 412.543 49.3242 413.027 48.4805C413.512 47.6289 414.195 46.9531 415.078 46.4531C415.961 45.9453 417.008 45.6914 418.219 45.6914C419.414 45.6914 420.422 45.8867 421.242 46.2773C422.07 46.6602 422.695 47.2148 423.117 47.9414C423.547 48.6602 423.762 49.5195 423.762 50.5195C423.762 51.082 423.672 51.6328 423.492 52.1719C423.312 52.7031 423.055 53.2344 422.719 53.7656C422.391 54.2891 421.992 54.8203 421.523 55.3594C421.055 55.8984 420.535 56.457 419.965 57.0352L417 60.3633H424.312ZM437.918 58.3242C437.918 59.3945 437.668 60.2969 437.168 61.0312C436.668 61.7578 435.98 62.3086 435.105 62.6836C434.238 63.0508 433.254 63.2344 432.152 63.2344C431.051 63.2344 430.062 63.0508 429.188 62.6836C428.312 62.3086 427.621 61.7578 427.113 61.0312C426.605 60.2969 426.352 59.3945 426.352 58.3242C426.352 57.6055 426.496 56.957 426.785 56.3789C427.074 55.793 427.477 55.293 427.992 54.8789C428.516 54.457 429.129 54.1367 429.832 53.918C430.535 53.6914 431.301 53.5781 432.129 53.5781C433.238 53.5781 434.23 53.7734 435.105 54.1641C435.98 54.5547 436.668 55.1055 437.168 55.8164C437.668 56.5273 437.918 57.3633 437.918 58.3242ZM434.52 58.1016C434.52 57.5781 434.418 57.1289 434.215 56.7539C434.02 56.3711 433.742 56.0781 433.383 55.875C433.023 55.6719 432.605 55.5703 432.129 55.5703C431.652 55.5703 431.234 55.6719 430.875 55.875C430.516 56.0781 430.234 56.3711 430.031 56.7539C429.836 57.1289 429.738 57.5781 429.738 58.1016C429.738 58.6172 429.836 59.0625 430.031 59.4375C430.234 59.8125 430.516 60.1016 430.875 60.3047C431.242 60.5 431.668 60.5977 432.152 60.5977C432.637 60.5977 433.055 60.5 433.406 60.3047C433.766 60.1016 434.039 59.8125 434.227 59.4375C434.422 59.0625 434.52 58.6172 434.52 58.1016ZM437.555 50.4609C437.555 51.3281 437.324 52.0977 436.863 52.7695C436.402 53.4336 435.762 53.9531 434.941 54.3281C434.129 54.7031 433.199 54.8906 432.152 54.8906C431.098 54.8906 430.16 54.7031 429.34 54.3281C428.52 53.9531 427.879 53.4336 427.418 52.7695C426.957 52.0977 426.727 51.3281 426.727 50.4609C426.727 49.4297 426.957 48.5625 427.418 47.8594C427.887 47.1484 428.527 46.6094 429.34 46.2422C430.16 45.875 431.09 45.6914 432.129 45.6914C433.184 45.6914 434.117 45.875 434.93 46.2422C435.75 46.6094 436.391 47.1484 436.852 47.8594C437.32 48.5625 437.555 49.4297 437.555 50.4609ZM434.18 50.6133C434.18 50.1523 434.098 49.7539 433.934 49.418C433.77 49.0742 433.535 48.8086 433.23 48.6211C432.934 48.4336 432.566 48.3398 432.129 48.3398C431.707 48.3398 431.344 48.4297 431.039 48.6094C430.742 48.7891 430.512 49.0508 430.348 49.3945C430.191 49.7305 430.113 50.1367 430.113 50.6133C430.113 51.0742 430.191 51.4805 430.348 51.832C430.512 52.1758 430.746 52.4453 431.051 52.6406C431.355 52.8359 431.723 52.9336 432.152 52.9336C432.582 52.9336 432.945 52.8359 433.242 52.6406C433.547 52.4453 433.777 52.1758 433.934 51.832C434.098 51.4805 434.18 51.0742 434.18 50.6133ZM447.633 45.9375L441.375 64.4648H438.867L445.125 45.9375H447.633ZM457.336 45.9023V63H453.961V49.793L449.906 51.082V48.4219L456.973 45.9023H457.336ZM471.117 45.9023V63H467.742V49.793L463.688 51.082V48.4219L470.754 45.9023H471.117Z" fill="#F7DD43"/>
<path d="M497.57 57.3955C497.57 57.2178 497.543 57.0583 497.488 56.917C497.438 56.7712 497.342 56.639 497.201 56.5205C497.06 56.3975 496.862 56.2767 496.606 56.1582C496.351 56.0397 496.021 55.9167 495.615 55.7891C495.164 55.6432 494.736 55.4792 494.33 55.2969C493.929 55.1146 493.574 54.9027 493.264 54.6611C492.958 54.415 492.717 54.1302 492.539 53.8066C492.366 53.4831 492.279 53.1071 492.279 52.6787C492.279 52.264 492.37 51.888 492.553 51.5508C492.735 51.209 492.99 50.9173 493.318 50.6758C493.646 50.4297 494.034 50.2406 494.48 50.1084C494.932 49.9762 495.426 49.9102 495.964 49.9102C496.698 49.9102 497.338 50.0423 497.885 50.3066C498.432 50.571 498.855 50.9333 499.156 51.3936C499.462 51.8538 499.614 52.3802 499.614 52.9727H497.577C497.577 52.681 497.516 52.4258 497.393 52.207C497.274 51.9837 497.092 51.8083 496.846 51.6807C496.604 51.5531 496.299 51.4893 495.93 51.4893C495.574 51.4893 495.278 51.5439 495.041 51.6533C494.804 51.7581 494.626 51.9017 494.508 52.084C494.389 52.2617 494.33 52.4622 494.33 52.6855C494.33 52.8542 494.371 53.0068 494.453 53.1436C494.54 53.2803 494.667 53.4079 494.836 53.5264C495.005 53.6449 495.212 53.7565 495.458 53.8613C495.704 53.9661 495.989 54.0687 496.312 54.1689C496.855 54.333 497.331 54.5176 497.741 54.7227C498.156 54.9277 498.502 55.1579 498.78 55.4131C499.058 55.6683 499.268 55.9577 499.409 56.2812C499.55 56.6048 499.621 56.9717 499.621 57.3818C499.621 57.8148 499.537 58.2021 499.368 58.5439C499.2 58.8857 498.956 59.1751 498.637 59.4121C498.318 59.6491 497.937 59.8291 497.495 59.9521C497.053 60.0752 496.559 60.1367 496.012 60.1367C495.52 60.1367 495.034 60.0729 494.556 59.9453C494.077 59.8132 493.642 59.6149 493.25 59.3506C492.863 59.0863 492.553 58.749 492.32 58.3389C492.088 57.9287 491.972 57.4434 491.972 56.8828H494.029C494.029 57.1927 494.077 57.4548 494.173 57.6689C494.269 57.8831 494.403 58.0563 494.576 58.1885C494.754 58.3206 494.964 58.4163 495.205 58.4756C495.451 58.5348 495.72 58.5645 496.012 58.5645C496.367 58.5645 496.659 58.5143 496.887 58.4141C497.119 58.3138 497.29 58.1748 497.399 57.9971C497.513 57.8193 497.57 57.6188 497.57 57.3955ZM507.694 58.4004V60H502.396V58.4004H507.694ZM503.066 50.0469V60H501.016V50.0469H503.066ZM507.004 54.1006V55.6592H502.396V54.1006H507.004ZM507.688 50.0469V51.6533H502.396V50.0469H507.688ZM516.779 54.7979V58.7422C516.624 58.929 516.385 59.1318 516.062 59.3506C515.738 59.5648 515.321 59.7493 514.811 59.9043C514.3 60.0592 513.683 60.1367 512.958 60.1367C512.315 60.1367 511.73 60.0319 511.201 59.8223C510.673 59.6081 510.217 59.2959 509.834 58.8857C509.456 58.4756 509.164 57.9743 508.959 57.3818C508.754 56.7848 508.651 56.1035 508.651 55.3379V54.7158C508.651 53.9502 508.749 53.2689 508.945 52.6719C509.146 52.0749 509.431 51.5713 509.8 51.1611C510.169 50.751 510.609 50.4388 511.119 50.2246C511.63 50.0104 512.197 49.9033 512.821 49.9033C513.687 49.9033 514.398 50.0446 514.954 50.3271C515.51 50.6051 515.934 50.9925 516.226 51.4893C516.522 51.9814 516.704 52.5465 516.772 53.1846H514.783C514.733 52.8473 514.637 52.5534 514.496 52.3027C514.355 52.0521 514.152 51.8561 513.888 51.7148C513.628 51.5736 513.291 51.5029 512.876 51.5029C512.534 51.5029 512.229 51.5736 511.96 51.7148C511.696 51.8516 511.472 52.0544 511.29 52.3232C511.108 52.5921 510.969 52.9248 510.873 53.3213C510.777 53.7178 510.729 54.1781 510.729 54.7021V55.3379C510.729 55.8574 510.78 56.3177 510.88 56.7188C510.98 57.1152 511.128 57.4502 511.324 57.7236C511.525 57.9925 511.771 58.1953 512.062 58.332C512.354 58.4688 512.694 58.5371 513.081 58.5371C513.405 58.5371 513.674 58.5098 513.888 58.4551C514.106 58.4004 514.282 58.3343 514.414 58.2568C514.551 58.1748 514.656 58.0973 514.729 58.0244V56.2607H512.855V54.7979H516.779ZM523.93 50.0469H525.974V56.623C525.974 57.3887 525.81 58.0335 525.481 58.5576C525.158 59.0817 524.709 59.4759 524.135 59.7402C523.565 60.0046 522.909 60.1367 522.166 60.1367C521.423 60.1367 520.762 60.0046 520.184 59.7402C519.609 59.4759 519.158 59.0817 518.83 58.5576C518.507 58.0335 518.345 57.3887 518.345 56.623V50.0469H520.396V56.623C520.396 57.0697 520.466 57.4342 520.607 57.7168C520.749 57.9993 520.951 58.2067 521.216 58.3389C521.485 58.471 521.801 58.5371 522.166 58.5371C522.54 58.5371 522.856 58.471 523.116 58.3389C523.381 58.2067 523.581 57.9993 523.718 57.7168C523.859 57.4342 523.93 57.0697 523.93 56.623V50.0469ZM535.763 50.0469V60H533.712L529.713 53.3281V60H527.662V50.0469H529.713L533.719 56.7256V50.0469H535.763ZM540.603 60H538.436L538.449 58.4004H540.603C541.14 58.4004 541.594 58.2796 541.963 58.0381C542.332 57.792 542.61 57.4342 542.797 56.9648C542.988 56.4954 543.084 55.9281 543.084 55.2627V54.7773C543.084 54.2669 543.029 53.818 542.92 53.4307C542.815 53.0433 542.658 52.7174 542.448 52.4531C542.239 52.1888 541.981 51.9906 541.676 51.8584C541.37 51.7217 541.02 51.6533 540.623 51.6533H538.395V50.0469H540.623C541.288 50.0469 541.897 50.1608 542.448 50.3887C543.004 50.612 543.485 50.9333 543.891 51.3525C544.296 51.7718 544.608 52.2731 544.827 52.8564C545.05 53.4352 545.162 54.0801 545.162 54.791V55.2627C545.162 55.9691 545.05 56.6139 544.827 57.1973C544.608 57.7806 544.296 58.2819 543.891 58.7012C543.49 59.1159 543.009 59.4372 542.448 59.665C541.892 59.8883 541.277 60 540.603 60ZM539.598 50.0469V60H537.547V50.0469H539.598ZM550.549 51.749L547.842 60H545.661L549.359 50.0469H550.747L550.549 51.749ZM552.798 60L550.084 51.749L549.865 50.0469H551.267L554.985 60H552.798ZM552.675 56.2949V57.9014H547.418V56.2949H552.675Z" fill="#E1E1E6"/>
<rect x="395" y="32.5" width="176" height="45" rx="5.5" stroke="#338AF3"/>
<g clip-path="url(#clip1_0_1)">
<path d="M373 181C386.807 181 398 169.807 398 156C398 142.193 386.807 131 373 131C359.193 131 348 142.193 348 156C348 169.807 359.193 181 373 181Z" fill="#F0F0F0"/>
<path d="M381.696 156C381.696 158.174 377.802 163.609 373 163.609C368.198 163.609 364.304 158.174 364.304 156C364.304 151.197 368.198 147.304 373 147.304C377.802 147.304 381.696 151.197 381.696 156Z" fill="#D80027"/>
<path d="M381.696 156C381.696 160.803 377.802 164.696 373 164.696C368.198 164.696 364.304 160.803 364.304 156" fill="#0052B4"/>
<path d="M382.216 163.686L384.522 161.381L386.059 162.918L383.753 165.223L382.216 163.686Z" fill="black"/>
<path d="M378.373 167.529L380.678 165.223L382.215 166.76L379.91 169.066L378.373 167.529Z" fill="black"/>
<path d="M386.828 168.297L389.133 165.992L390.67 167.528L388.364 169.834L386.828 168.297Z" fill="black"/>
<path d="M382.984 172.14L385.29 169.835L386.827 171.372L384.521 173.677L382.984 172.14Z" fill="black"/>
<path d="M384.522 165.992L386.827 163.686L388.364 165.223L386.059 167.529L384.522 165.992Z" fill="black"/>
<path d="M380.679 169.834L382.985 167.529L384.522 169.066L382.216 171.371L380.679 169.834Z" fill="black"/>
<path d="M386.838 148.318L380.69 142.17L382.227 140.633L388.375 146.781L386.838 148.318Z" fill="black"/>
<path d="M380.689 146.782L378.383 144.476L379.92 142.939L382.226 145.245L380.689 146.782Z" fill="black"/>
<path d="M384.531 150.625L382.226 148.319L383.763 146.783L386.068 149.088L384.531 150.625Z" fill="black"/>
<path d="M385.299 142.17L382.994 139.865L384.531 138.328L386.836 140.633L385.299 142.17Z" fill="black"/>
<path d="M389.144 146.014L386.838 143.708L388.375 142.171L390.681 144.477L389.144 146.014Z" fill="black"/>
<path d="M356.863 165.987L363.011 172.135L361.474 173.672L355.326 167.524L356.863 165.987Z" fill="black"/>
<path d="M363.01 167.523L365.316 169.829L363.779 171.366L361.473 169.06L363.01 167.523Z" fill="black"/>
<path d="M359.167 163.682L361.473 165.987L359.936 167.524L357.631 165.219L359.167 163.682Z" fill="black"/>
<path d="M361.473 161.376L367.621 167.523L366.084 169.06L359.936 162.913L361.473 161.376Z" fill="black"/>
<path d="M363.01 139.86L356.862 146.008L355.325 144.471L361.473 138.323L363.01 139.86Z" fill="black"/>
<path d="M365.315 142.165L359.168 148.313L357.631 146.776L363.778 140.628L365.315 142.165Z" fill="black"/>
<path d="M367.623 144.472L361.475 150.619L359.938 149.083L366.086 142.935L367.623 144.472Z" fill="black"/>
</g>
<path d="M450.516 142.906V168.5H444.592V149.586L438.756 151.291V146.791L449.971 142.906H450.516ZM476.057 153.365V158.041C476.057 159.881 475.84 161.48 475.406 162.84C474.984 164.199 474.375 165.324 473.578 166.215C472.793 167.105 471.855 167.768 470.766 168.201C469.676 168.635 468.475 168.852 467.162 168.852C466.107 168.852 465.123 168.717 464.209 168.447C463.295 168.166 462.469 167.744 461.73 167.182C461.004 166.607 460.377 165.893 459.85 165.037C459.322 164.182 458.918 163.174 458.637 162.014C458.355 160.842 458.215 159.518 458.215 158.041V153.365C458.215 151.514 458.426 149.914 458.848 148.566C459.281 147.207 459.896 146.082 460.693 145.191C461.49 144.301 462.434 143.639 463.523 143.205C464.613 142.771 465.814 142.555 467.127 142.555C468.182 142.555 469.16 142.695 470.062 142.977C470.977 143.246 471.803 143.668 472.541 144.242C473.279 144.805 473.906 145.514 474.422 146.369C474.949 147.225 475.354 148.238 475.635 149.41C475.916 150.57 476.057 151.889 476.057 153.365ZM470.133 158.762V152.609C470.133 151.789 470.086 151.074 469.992 150.465C469.91 149.855 469.781 149.34 469.605 148.918C469.441 148.496 469.236 148.156 468.99 147.898C468.744 147.629 468.463 147.436 468.146 147.318C467.842 147.189 467.502 147.125 467.127 147.125C466.658 147.125 466.236 147.225 465.861 147.424C465.498 147.611 465.188 147.916 464.93 148.338C464.672 148.76 464.473 149.322 464.332 150.025C464.203 150.729 464.139 151.59 464.139 152.609V158.762C464.139 159.594 464.18 160.32 464.262 160.941C464.355 161.551 464.484 162.072 464.648 162.506C464.824 162.928 465.035 163.273 465.281 163.543C465.527 163.801 465.809 163.988 466.125 164.105C466.441 164.223 466.787 164.281 467.162 164.281C467.619 164.281 468.029 164.188 468.393 164C468.756 163.812 469.066 163.508 469.324 163.086C469.594 162.652 469.793 162.084 469.922 161.381C470.062 160.666 470.133 159.793 470.133 158.762ZM479.66 165.723C479.66 164.879 479.965 164.176 480.574 163.613C481.184 163.039 481.969 162.752 482.93 162.752C483.902 162.752 484.688 163.039 485.285 163.613C485.895 164.176 486.199 164.879 486.199 165.723C486.199 166.566 485.895 167.275 485.285 167.85C484.688 168.412 483.902 168.693 482.93 168.693C481.969 168.693 481.184 168.412 480.574 167.85C479.965 167.275 479.66 166.566 479.66 165.723ZM479.66 151.695C479.66 150.852 479.965 150.148 480.574 149.586C481.184 149.012 481.969 148.725 482.93 148.725C483.902 148.725 484.688 149.012 485.285 149.586C485.895 150.148 486.199 150.852 486.199 151.695C486.199 152.539 485.895 153.248 485.285 153.822C484.688 154.385 483.902 154.666 482.93 154.666C481.969 154.666 481.184 154.385 480.574 153.822C479.965 153.248 479.66 152.539 479.66 151.695ZM507.768 153.365V158.041C507.768 159.881 507.551 161.48 507.117 162.84C506.695 164.199 506.086 165.324 505.289 166.215C504.504 167.105 503.566 167.768 502.477 168.201C501.387 168.635 500.186 168.852 498.873 168.852C497.818 168.852 496.834 168.717 495.92 168.447C495.006 168.166 494.18 167.744 493.441 167.182C492.715 166.607 492.088 165.893 491.561 165.037C491.033 164.182 490.629 163.174 490.348 162.014C490.066 160.842 489.926 159.518 489.926 158.041V153.365C489.926 151.514 490.137 149.914 490.559 148.566C490.992 147.207 491.607 146.082 492.404 145.191C493.201 144.301 494.145 143.639 495.234 143.205C496.324 142.771 497.525 142.555 498.838 142.555C499.893 142.555 500.871 142.695 501.773 142.977C502.688 143.246 503.514 143.668 504.252 144.242C504.99 144.805 505.617 145.514 506.133 146.369C506.66 147.225 507.064 148.238 507.346 149.41C507.627 150.57 507.768 151.889 507.768 153.365ZM501.844 158.762V152.609C501.844 151.789 501.797 151.074 501.703 150.465C501.621 149.855 501.492 149.34 501.316 148.918C501.152 148.496 500.947 148.156 500.701 147.898C500.455 147.629 500.174 147.436 499.857 147.318C499.553 147.189 499.213 147.125 498.838 147.125C498.369 147.125 497.947 147.225 497.572 147.424C497.209 147.611 496.898 147.916 496.641 148.338C496.383 148.76 496.184 149.322 496.043 150.025C495.914 150.729 495.85 151.59 495.85 152.609V158.762C495.85 159.594 495.891 160.32 495.973 160.941C496.066 161.551 496.195 162.072 496.359 162.506C496.535 162.928 496.746 163.273 496.992 163.543C497.238 163.801 497.52 163.988 497.836 164.105C498.152 164.223 498.498 164.281 498.873 164.281C499.33 164.281 499.74 164.188 500.104 164C500.467 163.812 500.777 163.508 501.035 163.086C501.305 162.652 501.504 162.084 501.633 161.381C501.773 160.666 501.844 159.793 501.844 158.762ZM528.65 153.365V158.041C528.65 159.881 528.434 161.48 528 162.84C527.578 164.199 526.969 165.324 526.172 166.215C525.387 167.105 524.449 167.768 523.359 168.201C522.27 168.635 521.068 168.852 519.756 168.852C518.701 168.852 517.717 168.717 516.803 168.447C515.889 168.166 515.062 167.744 514.324 167.182C513.598 166.607 512.971 165.893 512.443 165.037C511.916 164.182 511.512 163.174 511.23 162.014C510.949 160.842 510.809 159.518 510.809 158.041V153.365C510.809 151.514 511.02 149.914 511.441 148.566C511.875 147.207 512.49 146.082 513.287 145.191C514.084 144.301 515.027 143.639 516.117 143.205C517.207 142.771 518.408 142.555 519.721 142.555C520.775 142.555 521.754 142.695 522.656 142.977C523.57 143.246 524.396 143.668 525.135 144.242C525.873 144.805 526.5 145.514 527.016 146.369C527.543 147.225 527.947 148.238 528.229 149.41C528.51 150.57 528.65 151.889 528.65 153.365ZM522.727 158.762V152.609C522.727 151.789 522.68 151.074 522.586 150.465C522.504 149.855 522.375 149.34 522.199 148.918C522.035 148.496 521.83 148.156 521.584 147.898C521.338 147.629 521.057 147.436 520.74 147.318C520.436 147.189 520.096 147.125 519.721 147.125C519.252 147.125 518.83 147.225 518.455 147.424C518.092 147.611 517.781 147.916 517.523 148.338C517.266 148.76 517.066 149.322 516.926 150.025C516.797 150.729 516.732 151.59 516.732 152.609V158.762C516.732 159.594 516.773 160.32 516.855 160.941C516.949 161.551 517.078 162.072 517.242 162.506C517.418 162.928 517.629 163.273 517.875 163.543C518.121 163.801 518.402 163.988 518.719 164.105C519.035 164.223 519.381 164.281 519.756 164.281C520.213 164.281 520.623 164.188 520.986 164C521.35 163.812 521.66 163.508 521.918 163.086C522.188 162.652 522.387 162.084 522.516 161.381C522.656 160.666 522.727 159.793 522.727 158.762Z" fill="#E1E1E6"/>
<g clip-path="url(#clip2_0_1)">
<path d="M568 156C568 159.058 568.55 161.987 569.555 164.696L593 165.783L616.445 164.696C617.45 161.987 618 159.058 618 156C618 152.942 617.45 150.013 616.445 147.304L593 146.217L569.555 147.304C568.55 150.013 568 152.942 568 156V156Z" fill="#FFDA44"/>
<path d="M593 131C582.251 131 573.087 137.784 569.555 147.304H616.445C612.913 137.784 603.749 131 593 131Z" fill="#D80027"/>
<path d="M616.445 164.696H569.555C573.087 174.216 582.251 181 593 181C603.749 181 612.913 174.216 616.445 164.696Z" fill="#496E2D"/>
<path d="M593 147.304L595.158 153.947H602.143L596.492 158.053L598.651 164.696L593 160.59L587.349 164.696L589.507 158.053L583.857 153.947H590.842L593 147.304Z" fill="black"/>
</g>
<line x1="348.002" y1="204.5" x2="618.001" y2="205.409" stroke="#323238"/>
<g clip-path="url(#clip3_0_1)">
<path d="M373 279.909C386.807 279.909 398 268.716 398 254.909C398 241.102 386.807 229.909 373 229.909C359.193 229.909 348 241.102 348 254.909C348 268.716 359.193 279.909 373 279.909Z" fill="#6DA544"/>
<path d="M373 239.692L393.652 254.909L373 270.126L352.348 254.909L373 239.692Z" fill="#FFDA44"/>
<path d="M373 263.605C377.802 263.605 381.696 259.711 381.696 254.909C381.696 250.107 377.802 246.213 373 246.213C368.198 246.213 364.304 250.107 364.304 254.909C364.304 259.711 368.198 263.605 373 263.605Z" fill="#F0F0F0"/>
<path d="M368.652 254.366C367.14 254.366 365.681 254.596 364.307 255.022C364.368 259.772 368.236 263.605 373 263.605C375.946 263.605 378.548 262.138 380.121 259.897C377.43 256.528 373.289 254.366 368.652 254.366Z" fill="#0052B4"/>
<path d="M381.534 256.575C381.639 256.036 381.696 255.479 381.696 254.909C381.696 250.107 377.803 246.213 373 246.213C369.417 246.213 366.341 248.382 365.009 251.477C366.186 251.233 367.404 251.105 368.652 251.105C373.703 251.105 378.272 253.204 381.534 256.575Z" fill="#0052B4"/>
</g>
<path d="M450.516 241.815V267.409H444.592V248.495L438.756 250.2V245.7L449.971 241.815H450.516ZM463.682 252.134H466.564C467.303 252.134 467.906 252.005 468.375 251.747C468.855 251.477 469.213 251.102 469.447 250.622C469.682 250.13 469.799 249.55 469.799 248.882C469.799 248.366 469.688 247.891 469.465 247.458C469.254 247.024 468.926 246.679 468.48 246.421C468.035 246.151 467.467 246.016 466.775 246.016C466.307 246.016 465.85 246.116 465.404 246.315C464.959 246.503 464.59 246.772 464.297 247.124C464.016 247.475 463.875 247.903 463.875 248.407H457.934C457.934 246.954 458.332 245.712 459.129 244.681C459.938 243.638 460.998 242.841 462.311 242.29C463.635 241.727 465.059 241.446 466.582 241.446C468.398 241.446 469.992 241.727 471.363 242.29C472.734 242.841 473.801 243.661 474.562 244.751C475.336 245.829 475.723 247.165 475.723 248.759C475.723 249.638 475.518 250.464 475.107 251.237C474.697 252.011 474.123 252.69 473.385 253.276C472.646 253.862 471.779 254.325 470.783 254.665C469.799 254.993 468.721 255.157 467.549 255.157H463.682V252.134ZM463.682 256.546V253.593H467.549C468.826 253.593 469.992 253.739 471.047 254.032C472.102 254.313 473.01 254.735 473.771 255.298C474.533 255.86 475.119 256.557 475.529 257.39C475.939 258.21 476.145 259.153 476.145 260.22C476.145 261.415 475.904 262.481 475.424 263.419C474.943 264.356 474.27 265.147 473.402 265.792C472.535 266.436 471.521 266.929 470.361 267.268C469.201 267.597 467.941 267.761 466.582 267.761C465.516 267.761 464.449 267.62 463.383 267.339C462.316 267.046 461.344 266.6 460.465 266.003C459.586 265.393 458.877 264.62 458.338 263.682C457.811 262.733 457.547 261.602 457.547 260.29H463.488C463.488 260.829 463.635 261.321 463.928 261.766C464.232 262.2 464.637 262.546 465.141 262.804C465.645 263.061 466.189 263.19 466.775 263.19C467.502 263.19 468.117 263.056 468.621 262.786C469.137 262.505 469.529 262.13 469.799 261.661C470.068 261.192 470.203 260.671 470.203 260.097C470.203 259.229 470.057 258.538 469.764 258.022C469.482 257.507 469.066 257.132 468.516 256.897C467.977 256.663 467.326 256.546 466.564 256.546H463.682ZM479.66 264.632C479.66 263.788 479.965 263.085 480.574 262.522C481.184 261.948 481.969 261.661 482.93 261.661C483.902 261.661 484.688 261.948 485.285 262.522C485.895 263.085 486.199 263.788 486.199 264.632C486.199 265.475 485.895 266.184 485.285 266.759C484.688 267.321 483.902 267.602 482.93 267.602C481.969 267.602 481.184 267.321 480.574 266.759C479.965 266.184 479.66 265.475 479.66 264.632ZM479.66 250.604C479.66 249.761 479.965 249.057 480.574 248.495C481.184 247.921 481.969 247.634 482.93 247.634C483.902 247.634 484.688 247.921 485.285 248.495C485.895 249.057 486.199 249.761 486.199 250.604C486.199 251.448 485.895 252.157 485.285 252.731C484.688 253.294 483.902 253.575 482.93 253.575C481.969 253.575 481.184 253.294 480.574 252.731C479.965 252.157 479.66 251.448 479.66 250.604ZM507.768 252.274V256.95C507.768 258.79 507.551 260.39 507.117 261.749C506.695 263.108 506.086 264.233 505.289 265.124C504.504 266.015 503.566 266.677 502.477 267.11C501.387 267.544 500.186 267.761 498.873 267.761C497.818 267.761 496.834 267.626 495.92 267.356C495.006 267.075 494.18 266.653 493.441 266.091C492.715 265.516 492.088 264.802 491.561 263.946C491.033 263.091 490.629 262.083 490.348 260.923C490.066 259.751 489.926 258.427 489.926 256.95V252.274C489.926 250.423 490.137 248.823 490.559 247.475C490.992 246.116 491.607 244.991 492.404 244.1C493.201 243.21 494.145 242.548 495.234 242.114C496.324 241.681 497.525 241.464 498.838 241.464C499.893 241.464 500.871 241.604 501.773 241.886C502.688 242.155 503.514 242.577 504.252 243.151C504.99 243.714 505.617 244.423 506.133 245.278C506.66 246.134 507.064 247.147 507.346 248.319C507.627 249.479 507.768 250.798 507.768 252.274ZM501.844 257.671V251.518C501.844 250.698 501.797 249.983 501.703 249.374C501.621 248.765 501.492 248.249 501.316 247.827C501.152 247.405 500.947 247.065 500.701 246.807C500.455 246.538 500.174 246.345 499.857 246.227C499.553 246.099 499.213 246.034 498.838 246.034C498.369 246.034 497.947 246.134 497.572 246.333C497.209 246.52 496.898 246.825 496.641 247.247C496.383 247.669 496.184 248.231 496.043 248.934C495.914 249.638 495.85 250.499 495.85 251.518V257.671C495.85 258.503 495.891 259.229 495.973 259.85C496.066 260.46 496.195 260.981 496.359 261.415C496.535 261.837 496.746 262.182 496.992 262.452C497.238 262.71 497.52 262.897 497.836 263.015C498.152 263.132 498.498 263.19 498.873 263.19C499.33 263.19 499.74 263.097 500.104 262.909C500.467 262.722 500.777 262.417 501.035 261.995C501.305 261.561 501.504 260.993 501.633 260.29C501.773 259.575 501.844 258.702 501.844 257.671ZM528.65 252.274V256.95C528.65 258.79 528.434 260.39 528 261.749C527.578 263.108 526.969 264.233 526.172 265.124C525.387 266.015 524.449 266.677 523.359 267.11C522.27 267.544 521.068 267.761 519.756 267.761C518.701 267.761 517.717 267.626 516.803 267.356C515.889 267.075 515.062 266.653 514.324 266.091C513.598 265.516 512.971 264.802 512.443 263.946C511.916 263.091 511.512 262.083 511.23 260.923C510.949 259.751 510.809 258.427 510.809 256.95V252.274C510.809 250.423 511.02 248.823 511.441 247.475C511.875 246.116 512.49 244.991 513.287 244.1C514.084 243.21 515.027 242.548 516.117 242.114C517.207 241.681 518.408 241.464 519.721 241.464C520.775 241.464 521.754 241.604 522.656 241.886C523.57 242.155 524.396 242.577 525.135 243.151C525.873 243.714 526.5 244.423 527.016 245.278C527.543 246.134 527.947 247.147 528.229 248.319C528.51 249.479 528.65 250.798 528.65 252.274ZM522.727 257.671V251.518C522.727 250.698 522.68 249.983 522.586 249.374C522.504 248.765 522.375 248.249 522.199 247.827C522.035 247.405 521.83 247.065 521.584 246.807C521.338 246.538 521.057 246.345 520.74 246.227C520.436 246.099 520.096 246.034 519.721 246.034C519.252 246.034 518.83 246.134 518.455 246.333C518.092 246.52 517.781 246.825 517.523 247.247C517.266 247.669 517.066 248.231 516.926 248.934C516.797 249.638 516.732 250.499 516.732 251.518V257.671C516.732 258.503 516.773 259.229 516.855 259.85C516.949 260.46 517.078 260.981 517.242 261.415C517.418 261.837 517.629 262.182 517.875 262.452C518.121 262.71 518.402 262.897 518.719 263.015C519.035 263.132 519.381 263.19 519.756 263.19C520.213 263.19 520.623 263.097 520.986 262.909C521.35 262.722 521.66 262.417 521.918 261.995C522.188 261.561 522.387 260.993 522.516 260.29C522.656 259.575 522.727 258.702 522.727 257.671Z" fill="#E1E1E6"/>
<g clip-path="url(#clip4_0_1)">
<path d="M593 279.909C606.807 279.909 618 268.716 618 254.909C618 241.102 606.807 229.909 593 229.909C579.193 229.909 568 241.102 568 254.909C568 268.716 579.193 279.909 593 279.909Z" fill="#D80027"/>
<path d="M606.043 250.561H597.348V241.866H588.652V250.561H579.957V259.257H588.652V267.953H597.348V259.257H606.043V250.561Z" fill="#F0F0F0"/>
</g>
<line x1="348.002" y1="303.409" x2="618.001" y2="304.318" stroke="#323238"/>
<g clip-path="url(#clip5_0_1)">
<path d="M348 353.818C348 364.567 354.784 373.731 364.304 377.263L366.478 353.818L364.304 330.373C354.784 333.906 348 343.069 348 353.818Z" fill="#6DA544"/>
<path d="M398 353.818C398 340.011 386.807 328.818 373 328.818C369.942 328.818 367.013 329.368 364.304 330.373V377.263C367.013 378.268 369.942 378.818 373 378.818C386.807 378.818 398 367.625 398 353.818Z" fill="#D80027"/>
<path d="M364.304 362.514C369.107 362.514 373 358.621 373 353.818C373 349.016 369.107 345.123 364.304 345.123C359.502 345.123 355.609 349.016 355.609 353.818C355.609 358.621 359.502 362.514 364.304 362.514Z" fill="#FFDA44"/>
<path d="M359.413 349.47V354.905C359.413 357.606 361.603 359.796 364.304 359.796C367.006 359.796 369.196 357.607 369.196 354.905V349.47H359.413Z" fill="#D80027"/>
<path d="M364.304 356.536C363.405 356.536 362.674 355.804 362.674 354.905V352.731H365.935V354.905C365.935 355.804 365.203 356.536 364.304 356.536Z" fill="#F0F0F0"/>
</g>
<path d="M450.516 340.724V366.318H444.592V347.404L438.756 349.109V344.609L449.971 340.724H450.516ZM471.627 340.355H472.576V345.013H472.26C471.123 345.013 470.057 345.172 469.061 345.488C468.076 345.805 467.209 346.285 466.459 346.93C465.721 347.562 465.141 348.365 464.719 349.338C464.309 350.31 464.104 351.453 464.104 352.765V357.248C464.104 358.068 464.174 358.783 464.314 359.392C464.455 360.002 464.666 360.506 464.947 360.904C465.229 361.303 465.574 361.601 465.984 361.801C466.406 362 466.893 362.099 467.443 362.099C467.9 362.099 468.322 361.994 468.709 361.783C469.096 361.572 469.43 361.273 469.711 360.887C470.004 360.5 470.227 360.049 470.379 359.533C470.531 359.017 470.607 358.455 470.607 357.846C470.607 357.189 470.525 356.597 470.361 356.07C470.197 355.543 469.963 355.097 469.658 354.734C469.365 354.359 469.008 354.078 468.586 353.89C468.176 353.691 467.725 353.592 467.232 353.592C466.482 353.592 465.844 353.762 465.316 354.101C464.801 354.43 464.408 354.851 464.139 355.367C463.881 355.883 463.752 356.404 463.752 356.931L462.328 355.49C462.305 354.787 462.439 354.06 462.732 353.31C463.025 352.56 463.465 351.863 464.051 351.219C464.637 350.574 465.369 350.053 466.248 349.654C467.127 349.256 468.146 349.056 469.307 349.056C470.479 349.056 471.51 349.279 472.4 349.724C473.303 350.17 474.059 350.791 474.668 351.588C475.289 352.385 475.758 353.316 476.074 354.383C476.391 355.449 476.549 356.603 476.549 357.846C476.549 359.099 476.326 360.265 475.881 361.344C475.447 362.41 474.832 363.342 474.035 364.138C473.238 364.935 472.295 365.556 471.205 366.002C470.115 366.447 468.914 366.67 467.602 366.67C466.254 366.67 465.006 366.441 463.857 365.984C462.721 365.515 461.725 364.842 460.869 363.963C460.025 363.072 459.363 361.988 458.883 360.711C458.414 359.433 458.18 357.986 458.18 356.369V354.207C458.18 352.015 458.537 350.064 459.252 348.353C459.979 346.642 460.963 345.195 462.205 344.012C463.459 342.816 464.895 341.908 466.512 341.287C468.129 340.666 469.834 340.355 471.627 340.355ZM479.66 363.541C479.66 362.697 479.965 361.994 480.574 361.431C481.184 360.857 481.969 360.57 482.93 360.57C483.902 360.57 484.688 360.857 485.285 361.431C485.895 361.994 486.199 362.697 486.199 363.541C486.199 364.385 485.895 365.094 485.285 365.668C484.688 366.23 483.902 366.512 482.93 366.512C481.969 366.512 481.184 366.23 480.574 365.668C479.965 365.094 479.66 364.385 479.66 363.541ZM479.66 349.513C479.66 348.67 479.965 347.967 480.574 347.404C481.184 346.83 481.969 346.543 482.93 346.543C483.902 346.543 484.688 346.83 485.285 347.404C485.895 347.967 486.199 348.67 486.199 349.513C486.199 350.357 485.895 351.066 485.285 351.64C484.688 352.203 483.902 352.484 482.93 352.484C481.969 352.484 481.184 352.203 480.574 351.64C479.965 351.066 479.66 350.357 479.66 349.513ZM507.768 351.183V355.859C507.768 357.699 507.551 359.299 507.117 360.658C506.695 362.017 506.086 363.142 505.289 364.033C504.504 364.924 503.566 365.586 502.477 366.019C501.387 366.453 500.186 366.67 498.873 366.67C497.818 366.67 496.834 366.535 495.92 366.265C495.006 365.984 494.18 365.562 493.441 365C492.715 364.426 492.088 363.711 491.561 362.855C491.033 362 490.629 360.992 490.348 359.832C490.066 358.66 489.926 357.336 489.926 355.859V351.183C489.926 349.332 490.137 347.732 490.559 346.385C490.992 345.025 491.607 343.9 492.404 343.01C493.201 342.119 494.145 341.457 495.234 341.023C496.324 340.59 497.525 340.373 498.838 340.373C499.893 340.373 500.871 340.513 501.773 340.795C502.688 341.064 503.514 341.486 504.252 342.06C504.99 342.623 505.617 343.332 506.133 344.187C506.66 345.043 507.064 346.056 507.346 347.228C507.627 348.388 507.768 349.707 507.768 351.183ZM501.844 356.58V350.428C501.844 349.607 501.797 348.892 501.703 348.283C501.621 347.674 501.492 347.158 501.316 346.736C501.152 346.314 500.947 345.974 500.701 345.717C500.455 345.447 500.174 345.254 499.857 345.137C499.553 345.008 499.213 344.943 498.838 344.943C498.369 344.943 497.947 345.043 497.572 345.242C497.209 345.43 496.898 345.734 496.641 346.156C496.383 346.578 496.184 347.14 496.043 347.844C495.914 348.547 495.85 349.408 495.85 350.428V356.58C495.85 357.412 495.891 358.138 495.973 358.76C496.066 359.369 496.195 359.89 496.359 360.324C496.535 360.746 496.746 361.092 496.992 361.361C497.238 361.619 497.52 361.806 497.836 361.924C498.152 362.041 498.498 362.099 498.873 362.099C499.33 362.099 499.74 362.006 500.104 361.818C500.467 361.631 500.777 361.326 501.035 360.904C501.305 360.471 501.504 359.902 501.633 359.199C501.773 358.484 501.844 357.611 501.844 356.58ZM528.65 351.183V355.859C528.65 357.699 528.434 359.299 528 360.658C527.578 362.017 526.969 363.142 526.172 364.033C525.387 364.924 524.449 365.586 523.359 366.019C522.27 366.453 521.068 366.67 519.756 366.67C518.701 366.67 517.717 366.535 516.803 366.265C515.889 365.984 515.062 365.562 514.324 365C513.598 364.426 512.971 363.711 512.443 362.855C511.916 362 511.512 360.992 511.23 359.832C510.949 358.66 510.809 357.336 510.809 355.859V351.183C510.809 349.332 511.02 347.732 511.441 346.385C511.875 345.025 512.49 343.9 513.287 343.01C514.084 342.119 515.027 341.457 516.117 341.023C517.207 340.59 518.408 340.373 519.721 340.373C520.775 340.373 521.754 340.513 522.656 340.795C523.57 341.064 524.396 341.486 525.135 342.06C525.873 342.623 526.5 343.332 527.016 344.187C527.543 345.043 527.947 346.056 528.229 347.228C528.51 348.388 528.65 349.707 528.65 351.183ZM522.727 356.58V350.428C522.727 349.607 522.68 348.892 522.586 348.283C522.504 347.674 522.375 347.158 522.199 346.736C522.035 346.314 521.83 345.974 521.584 345.717C521.338 345.447 521.057 345.254 520.74 345.137C520.436 345.008 520.096 344.943 519.721 344.943C519.252 344.943 518.83 345.043 518.455 345.242C518.092 345.43 517.781 345.734 517.523 346.156C517.266 346.578 517.066 347.14 516.926 347.844C516.797 348.547 516.732 349.408 516.732 350.428V356.58C516.732 357.412 516.773 358.138 516.855 358.76C516.949 359.369 517.078 359.89 517.242 360.324C517.418 360.746 517.629 361.092 517.875 361.361C518.121 361.619 518.402 361.806 518.719 361.924C519.035 362.041 519.381 362.099 519.756 362.099C520.213 362.099 520.623 362.006 520.986 361.818C521.35 361.631 521.66 361.326 521.918 360.904C522.188 360.471 522.387 359.902 522.516 359.199C522.656 358.484 522.727 357.611 522.727 356.58Z" fill="#E1E1E6"/>
<g clip-path="url(#clip6_0_1)">
<path d="M593 378.818C606.807 378.818 618 367.625 618 353.818C618 340.011 606.807 328.818 593 328.818C579.193 328.818 568 340.011 568 353.818C568 367.625 579.193 378.818 593 378.818Z" fill="#F0F0F0"/>
<path d="M593 347.296H617.139C616.512 344.971 615.559 342.779 614.331 340.775H593V347.296Z" fill="#338AF3"/>
<path d="M577.438 373.383H608.562C610.844 371.566 612.8 369.359 614.331 366.862H571.669C573.2 369.359 575.156 371.566 577.438 373.383Z" fill="#338AF3"/>
<path d="M593 328.818V334.253H608.562C604.292 330.852 598.884 328.818 593 328.818Z" fill="#338AF3"/>
<path d="M593 347.296H617.139C616.512 344.971 615.559 342.779 614.331 340.775H593V347.296Z" fill="#338AF3"/>
<path d="M568 353.818C568 356.075 568.301 358.26 568.861 360.34H617.139C617.699 358.26 618 356.075 618 353.818H568Z" fill="#338AF3"/>
<path d="M589.739 343.449L586.686 344.885L588.312 347.842L584.996 347.208L584.576 350.557L582.267 348.094L579.958 350.557L579.538 347.208L576.222 347.842L577.848 344.885L574.795 343.449L577.848 342.013L576.222 339.056L579.537 339.69L579.958 336.341L582.267 338.804L584.576 336.341L584.996 339.69L588.312 339.056L586.686 342.013L589.739 343.449Z" fill="#FFDA44"/>
</g>
<path d="M325 0H641H325ZM641 404.818C641 409.236 637.418 412.818 633 412.818H333C328.582 412.818 325 409.236 325 404.818C325 407.027 327.686 408.818 331 408.818H635C638.314 408.818 641 407.027 641 404.818ZM325 410.818V0V410.818ZM641 0V410.818V0Z" fill="#338AF3" mask="url(#path-3-inside-1_0_1)"/>
<defs>
<clipPath id="clip0_0_1">
<rect width="50" height="50" fill="white" transform="translate(0 131)"/>
</clipPath>
<clipPath id="clip1_0_1">
<rect width="50" height="50" fill="white" transform="translate(348 131)"/>
</clipPath>
<clipPath id="clip2_0_1">
<rect width="50" height="50" fill="white" transform="translate(568 131)"/>
</clipPath>
<clipPath id="clip3_0_1">
<rect width="50" height="50" fill="white" transform="translate(348 229.909)"/>
</clipPath>
<clipPath id="clip4_0_1">
<rect width="50" height="50" fill="white" transform="translate(568 229.909)"/>
</clipPath>
<clipPath id="clip5_0_1">
<rect width="50" height="50" fill="white" transform="translate(348 328.818)"/>
</clipPath>
<clipPath id="clip6_0_1">
<rect width="50" height="50" fill="white" transform="translate(568 328.818)"/>
</clipPath>
</defs>
</svg>
