<svg width="270" height="51" viewBox="0 0 270 51" fill="none" xmlns="http://www.w3.org/2000/svg">
<g clip-path="url(#clip0_402_150)">
<path d="M0 25.9091C0 36.6581 6.78438 45.8217 16.3042 49.354L18.4782 25.909L16.3042 2.46405C6.78438 5.99647 0 15.1599 0 25.9091Z" fill="#6DA544"/>
<path d="M50 25.9091C50 12.102 38.807 0.909058 25 0.909058C21.942 0.909058 19.0126 1.45916 16.3042 2.46404V49.3541C19.0126 50.3591 21.942 50.9091 25 50.9091C38.807 50.9091 50 39.7161 50 25.9091Z" fill="#D80027"/>
<path d="M16.3044 34.6047C21.1068 34.6047 25 30.7115 25 25.909C25 21.1066 21.1068 17.2134 16.3044 17.2134C11.5019 17.2134 7.60876 21.1066 7.60876 25.909C7.60876 30.7115 11.5019 34.6047 16.3044 34.6047Z" fill="#FFDA44"/>
<path d="M11.4131 21.5612V26.996C11.4131 29.6974 13.6029 31.8873 16.3044 31.8873C19.0059 31.8873 21.1957 29.6975 21.1957 26.996V21.5612H11.4131Z" fill="#D80027"/>
<path d="M16.3044 28.6264C15.4054 28.6264 14.674 27.895 14.674 26.996V24.8221H17.9348V26.9961C17.9348 27.895 17.2033 28.6264 16.3044 28.6264Z" fill="#F0F0F0"/>
</g>
<path d="M102.516 12.8153V38.4091H96.5918V19.495L90.7559 21.2001V16.7001L101.971 12.8153H102.516ZM115.682 23.1337H118.564C119.303 23.1337 119.906 23.0048 120.375 22.7469C120.855 22.4774 121.213 22.1024 121.447 21.6219C121.682 21.1298 121.799 20.5497 121.799 19.8817C121.799 19.3661 121.688 18.8915 121.465 18.4579C121.254 18.0243 120.926 17.6786 120.48 17.4208C120.035 17.1512 119.467 17.0165 118.775 17.0165C118.307 17.0165 117.85 17.1161 117.404 17.3153C116.959 17.5028 116.59 17.7723 116.297 18.1239C116.016 18.4755 115.875 18.9032 115.875 19.4071H109.934C109.934 17.954 110.332 16.7118 111.129 15.6805C111.938 14.6376 112.998 13.8407 114.311 13.2899C115.635 12.7274 117.059 12.4462 118.582 12.4462C120.398 12.4462 121.992 12.7274 123.363 13.2899C124.734 13.8407 125.801 14.661 126.562 15.7509C127.336 16.829 127.723 18.1649 127.723 19.7587C127.723 20.6376 127.518 21.4637 127.107 22.2372C126.697 23.0106 126.123 23.6903 125.385 24.2762C124.646 24.8622 123.779 25.3251 122.783 25.6649C121.799 25.993 120.721 26.1571 119.549 26.1571H115.682V23.1337ZM115.682 27.5458V24.5927H119.549C120.826 24.5927 121.992 24.7391 123.047 25.0321C124.102 25.3134 125.01 25.7352 125.771 26.2977C126.533 26.8602 127.119 27.5575 127.529 28.3895C127.939 29.2098 128.145 30.1532 128.145 31.2196C128.145 32.4149 127.904 33.4813 127.424 34.4188C126.943 35.3563 126.27 36.1473 125.402 36.7919C124.535 37.4364 123.521 37.9286 122.361 38.2684C121.201 38.5966 119.941 38.7606 118.582 38.7606C117.516 38.7606 116.449 38.62 115.383 38.3387C114.316 38.0458 113.344 37.6005 112.465 37.0028C111.586 36.3934 110.877 35.62 110.338 34.6825C109.811 33.7333 109.547 32.6024 109.547 31.2899H115.488C115.488 31.829 115.635 32.3212 115.928 32.7665C116.232 33.2001 116.637 33.5458 117.141 33.8036C117.645 34.0614 118.189 34.1903 118.775 34.1903C119.502 34.1903 120.117 34.0555 120.621 33.786C121.137 33.5048 121.529 33.1298 121.799 32.661C122.068 32.1923 122.203 31.6708 122.203 31.0966C122.203 30.2294 122.057 29.538 121.764 29.0223C121.482 28.5067 121.066 28.1317 120.516 27.8973C119.977 27.663 119.326 27.5458 118.564 27.5458H115.682ZM131.66 35.6317C131.66 34.788 131.965 34.0848 132.574 33.5223C133.184 32.9481 133.969 32.661 134.93 32.661C135.902 32.661 136.688 32.9481 137.285 33.5223C137.895 34.0848 138.199 34.788 138.199 35.6317C138.199 36.4755 137.895 37.1844 137.285 37.7587C136.688 38.3212 135.902 38.6024 134.93 38.6024C133.969 38.6024 133.184 38.3212 132.574 37.7587C131.965 37.1844 131.66 36.4755 131.66 35.6317ZM131.66 21.6044C131.66 20.7606 131.965 20.0575 132.574 19.495C133.184 18.9208 133.969 18.6337 134.93 18.6337C135.902 18.6337 136.688 18.9208 137.285 19.495C137.895 20.0575 138.199 20.7606 138.199 21.6044C138.199 22.4481 137.895 23.1571 137.285 23.7313C136.688 24.2938 135.902 24.5751 134.93 24.5751C133.969 24.5751 133.184 24.2938 132.574 23.7313C131.965 23.1571 131.66 22.4481 131.66 21.6044ZM159.768 23.2743V27.9501C159.768 29.7899 159.551 31.3895 159.117 32.7489C158.695 34.1083 158.086 35.2333 157.289 36.1239C156.504 37.0145 155.566 37.6766 154.477 38.1102C153.387 38.5438 152.186 38.7606 150.873 38.7606C149.818 38.7606 148.834 38.6259 147.92 38.3563C147.006 38.0751 146.18 37.6532 145.441 37.0907C144.715 36.5165 144.088 35.8016 143.561 34.9462C143.033 34.0907 142.629 33.0829 142.348 31.9227C142.066 30.7509 141.926 29.4266 141.926 27.9501V23.2743C141.926 21.4227 142.137 19.8231 142.559 18.4755C142.992 17.1161 143.607 15.9911 144.404 15.1005C145.201 14.2098 146.145 13.5477 147.234 13.1141C148.324 12.6805 149.525 12.4637 150.838 12.4637C151.893 12.4637 152.871 12.6044 153.773 12.8856C154.688 13.1552 155.514 13.577 156.252 14.1512C156.99 14.7137 157.617 15.4227 158.133 16.2782C158.66 17.1337 159.064 18.1473 159.346 19.3192C159.627 20.4794 159.768 21.7977 159.768 23.2743ZM153.844 28.6708V22.5184C153.844 21.6981 153.797 20.9833 153.703 20.3739C153.621 19.7645 153.492 19.2489 153.316 18.827C153.152 18.4052 152.947 18.0653 152.701 17.8075C152.455 17.538 152.174 17.3446 151.857 17.2274C151.553 17.0985 151.213 17.0341 150.838 17.0341C150.369 17.0341 149.947 17.1337 149.572 17.3329C149.209 17.5204 148.898 17.8251 148.641 18.2469C148.383 18.6688 148.184 19.2313 148.043 19.9344C147.914 20.6376 147.85 21.4989 147.85 22.5184V28.6708C147.85 29.5028 147.891 30.2294 147.973 30.8505C148.066 31.4598 148.195 31.9813 148.359 32.4149C148.535 32.8368 148.746 33.1825 148.992 33.452C149.238 33.7098 149.52 33.8973 149.836 34.0145C150.152 34.1317 150.498 34.1903 150.873 34.1903C151.33 34.1903 151.74 34.0966 152.104 33.9091C152.467 33.7216 152.777 33.4169 153.035 32.995C153.305 32.5614 153.504 31.993 153.633 31.2899C153.773 30.5751 153.844 29.702 153.844 28.6708ZM180.65 23.2743V27.9501C180.65 29.7899 180.434 31.3895 180 32.7489C179.578 34.1083 178.969 35.2333 178.172 36.1239C177.387 37.0145 176.449 37.6766 175.359 38.1102C174.27 38.5438 173.068 38.7606 171.756 38.7606C170.701 38.7606 169.717 38.6259 168.803 38.3563C167.889 38.0751 167.062 37.6532 166.324 37.0907C165.598 36.5165 164.971 35.8016 164.443 34.9462C163.916 34.0907 163.512 33.0829 163.23 31.9227C162.949 30.7509 162.809 29.4266 162.809 27.9501V23.2743C162.809 21.4227 163.02 19.8231 163.441 18.4755C163.875 17.1161 164.49 15.9911 165.287 15.1005C166.084 14.2098 167.027 13.5477 168.117 13.1141C169.207 12.6805 170.408 12.4637 171.721 12.4637C172.775 12.4637 173.754 12.6044 174.656 12.8856C175.57 13.1552 176.396 13.577 177.135 14.1512C177.873 14.7137 178.5 15.4227 179.016 16.2782C179.543 17.1337 179.947 18.1473 180.229 19.3192C180.51 20.4794 180.65 21.7977 180.65 23.2743ZM174.727 28.6708V22.5184C174.727 21.6981 174.68 20.9833 174.586 20.3739C174.504 19.7645 174.375 19.2489 174.199 18.827C174.035 18.4052 173.83 18.0653 173.584 17.8075C173.338 17.538 173.057 17.3446 172.74 17.2274C172.436 17.0985 172.096 17.0341 171.721 17.0341C171.252 17.0341 170.83 17.1337 170.455 17.3329C170.092 17.5204 169.781 17.8251 169.523 18.2469C169.266 18.6688 169.066 19.2313 168.926 19.9344C168.797 20.6376 168.732 21.4989 168.732 22.5184V28.6708C168.732 29.5028 168.773 30.2294 168.855 30.8505C168.949 31.4598 169.078 31.9813 169.242 32.4149C169.418 32.8368 169.629 33.1825 169.875 33.452C170.121 33.7098 170.402 33.8973 170.719 34.0145C171.035 34.1317 171.381 34.1903 171.756 34.1903C172.213 34.1903 172.623 34.0966 172.986 33.9091C173.35 33.7216 173.66 33.4169 173.918 32.995C174.188 32.5614 174.387 31.993 174.516 31.2899C174.656 30.5751 174.727 29.702 174.727 28.6708Z" fill="#E1E1E6"/>
<g clip-path="url(#clip1_402_150)">
<path d="M220 25.9091C220 28.9671 220.55 31.8964 221.555 34.6047L245 35.6917L268.445 34.6048C269.45 31.8964 270 28.9671 270 25.9091C270 22.8511 269.45 19.9218 268.445 17.2135L245 16.1265L221.555 17.2134C220.55 19.9218 220 22.8511 220 25.9091V25.9091Z" fill="#FFDA44"/>
<path d="M245 0.909058C234.251 0.909058 225.087 7.69343 221.555 17.2135H268.445C264.913 7.69343 255.749 0.909058 245 0.909058V0.909058Z" fill="#D80027"/>
<path d="M268.445 34.6047H221.555C225.087 44.1246 234.251 50.9091 245 50.9091C255.749 50.9091 264.913 44.1246 268.445 34.6047Z" fill="#496E2D"/>
<path d="M245 17.2134L247.158 23.856H254.143L248.492 27.9618L250.651 34.6047L245 30.4992L239.349 34.6047L241.507 27.9618L235.857 23.856H242.842L245 17.2134Z" fill="black"/>
</g>
<defs>
<clipPath id="clip0_402_150">
<rect width="50" height="50" fill="white" transform="translate(0 0.909058)"/>
</clipPath>
<clipPath id="clip1_402_150">
<rect width="50" height="50" fill="white" transform="translate(220 0.909058)"/>
</clipPath>
</defs>
</svg>
